<svg width="1130" height="1736" viewBox="0 0 1130 1736" fill="none" xmlns="http://www.w3.org/2000/svg">
<path fill-rule="evenodd" clip-rule="evenodd" d="M568.004 1734.5L444.504 1585.5L324.504 1410.5L198.004 1206L101.004 998.5L52.5039 862L20.0039 739L0.503906 534.5L20.0039 427.5L52.5039 333.5L101.004 259L179.004 165L282.504 84L380.004 41.5L444.504 15.5L484.504 8.5L546.004 0.5H605.504H645.004L696.004 8.5L752.504 26.5L829.004 59L891.504 98L943.504 139L974.504 172.5L1035 238L1068.5 288.5L1103 367L1124 427.5L1129 457V680L1124 740.5L1108.5 789L1080 899.5L1045.5 993.5L978.004 1144.5L780.504 1484.5L666.504 1635.5L568.004 1734.5ZM296.504 427.5L273.004 485V604V654L282.504 699.5L320.004 750.5L369.504 799L426.504 840.5L469.004 865.5L515.004 873.5H588.004H634.004L663.004 865.5L721.004 840.5L775.004 799L813.504 763L844.004 713.5L873.004 654V618V565.5V501.5L863.504 470L844.004 427.5L813.504 387L786.004 352.5L740.504 315L694.504 288.5L625.504 269.5H546.504H501.004L455.504 288.5L419.504 304L380.004 326L353.004 352.5L320.004 387L296.504 427.5Z" fill="#025EA1" stroke="black"/>
<circle cx="564.504" cy="560.5" r="429" fill="white"/>
<path d="M379.53 319.306L386.594 317.131L389.854 316.587L395.831 317.131L399.635 319.306L406.155 322.569L417.022 331.812L431.693 344.862L445.821 360.631L463.752 382.38L482.77 409.568L486.03 413.374L488.204 413.917L497.441 411.743L507.222 409.568L518.089 408.48L527.87 407.393H536.02H553.408H577.316H593.618L605.028 408.48L619.699 410.655L624.59 411.743L628.937 412.83L630.567 413.917H635.457H640.891L641.977 412.83L653.388 396.518L670.233 373.681L690.881 350.3L704.465 336.706L714.246 328.55L727.287 319.85L732.177 317.131L734.35 316.044L736.524 315.5H738.697L741.414 316.044L745.218 317.675L747.391 319.306L751.195 322.569L759.889 332.9L764.779 341.056L776.19 360.631L781.624 370.418L787.601 382.924L807.162 435.667L822.376 493.848L829.44 526.472L834.33 560.728L836.504 578.672V599.334V618.365L834.33 634.133L831.614 649.358L827.81 661.864L821.29 680.352L812.052 698.839L797.381 720.589L775.103 744.513L751.738 760.282L720.766 777.138L694.141 788.013L675.666 792.906L648.498 799.975L613.179 804.325L597.421 805.956L569.709 806.5H543.628L532.217 805.956L519.176 804.869L502.875 803.781L482.77 800.519L481.14 799.975H478.423L474.62 798.888L468.642 797.8L458.318 795.081L450.711 793.45L444.191 791.275L419.196 783.119L393.657 771.157L380.073 764.632L362.685 752.126L353.448 744.513L340.951 733.095L334.43 726.026L321.389 708.626L316.499 699.926L308.892 687.964L299.654 661.864L295.307 646.64L293.134 631.958L291.504 623.259V611.296V594.44V580.303L292.591 571.059L293.677 558.553L294.764 546.047L298.568 525.929L301.285 506.898L302.915 500.916L305.632 490.042L307.805 480.798L309.435 473.185L314.325 456.873L318.129 445.455L320.846 435.667L323.019 427.511L327.366 413.374L333.887 400.324L337.69 391.624L340.407 382.38L345.841 370.418L351.275 360.631L356.708 348.125L367.032 331.812L379.53 319.306Z" fill="#6CACE4" stroke="black"/>
</svg>
